<?xml version="1.0" encoding="UTF-8" standalone="no"?>
<svg
   xmlns:dc="http://purl.org/dc/elements/1.1/"
   xmlns:cc="http://creativecommons.org/ns#"
   xmlns:rdf="http://www.w3.org/1999/02/22-rdf-syntax-ns#"
   xmlns:svg="http://www.w3.org/2000/svg"
   xmlns="http://www.w3.org/2000/svg"
   xmlns:sodipodi="http://sodipodi.sourceforge.net/DTD/sodipodi-0.dtd"
   xmlns:inkscape="http://www.inkscape.org/namespaces/inkscape"
   inkscape:version="1.0 (4035a4fb49, 2020-05-01)"
   sodipodi:docname="UNKNOWN.svg"
   id="svg985"
   height="600"
   width="600"
   version="1.1">
  <metadata
     id="metadata991">
    <rdf:RDF>
      <cc:Work
         rdf:about="">
        <dc:format>image/svg+xml</dc:format>
        <dc:type
           rdf:resource="http://purl.org/dc/dcmitype/StillImage" />
        <dc:title></dc:title>
      </cc:Work>
    </rdf:RDF>
  </metadata>
  <defs
     id="defs989">
    <rect
       id="rect995"
       height="669.59707"
       width="378.02198"
       y="79.120879"
       x="175.82418" />
  </defs>
  <sodipodi:namedview
     inkscape:current-layer="svg985"
     inkscape:window-maximized="1"
     inkscape:window-y="0"
     inkscape:window-x="0"
     inkscape:cy="315.34727"
     inkscape:cx="196.06729"
     inkscape:zoom="0.96520076"
     showgrid="false"
     id="namedview987"
     inkscape:window-height="1010"
     inkscape:window-width="1920"
     inkscape:pageshadow="2"
     inkscape:pageopacity="0"
     guidetolerance="10"
     gridtolerance="10"
     objecttolerance="10"
     borderopacity="1"
     bordercolor="#666666"
     pagecolor="#ffffff" />
  <circle
     id="circle981"
     fill="#cbc2bf"
     r="300"
     cy="300"
     cx="300" />
  <g
     style="font-style:normal;font-weight:normal;font-size:533.333px;line-height:1.25;font-family:sans-serif;letter-spacing:0px;word-spacing:0px;white-space:pre;shape-inside:url(#rect995);fill:#000000;fill-opacity:1;stroke:none"
     id="text993"
     transform="translate(-7.8808493,-48.121825)"
     aria-label="?">
    <path
       id="path1013"
       style="font-style:normal;font-variant:normal;font-weight:normal;font-stretch:normal;font-size:533.333px;font-family:Serif;-inkscape-font-specification:Serif"
       d="m 269.57416,523.91249 q 0,-14.58333 9.89583,-24.73957 10.15624,-10.15624 24.99998,-10.15624 14.32291,0 24.47916,10.15624 10.15624,10.15624 10.15624,24.73957 0,14.32291 -10.15624,24.47915 -10.15625,10.15624 -24.47916,10.15624 -14.84374,0 -24.99998,-9.89582 -9.89583,-10.15625 -9.89583,-24.73957 z M 212.02211,179.38145 q 27.60415,-12.23958 52.34372,-18.22916 24.99999,-5.98958 46.87497,-5.98958 57.81247,0 91.14578,27.86457 33.59373,27.86457 33.59373,75.26037 0,48.43747 -28.90623,79.16662 -28.64582,30.72915 -86.7187,44.01039 v 66.14579 h -32.03123 v -85.41661 q 46.09372,-11.19791 69.27079,-37.49998 23.43749,-26.30207 23.43749,-66.92704 0,-35.67706 -19.01041,-56.24997 -19.0104,-20.5729 -51.82288,-20.5729 -29.68749,0 -48.69789,17.18749 -18.74999,16.92707 -24.21874,48.9583 h -25.2604 z" />
  </g>
</svg>
